<svg width="287" height="75" fill="none" xmlns="http://www.w3.org/2000/svg"><g clip-path="url(#clip0_6000_78881)" fill="#000"><path fill-rule="evenodd" clip-rule="evenodd" d="M70.03 67.826h9.617V48.039h11.504c4.58 0 8.44-.823 11.466-2.447a16.402 16.402 0 006.868-6.702 19.815 19.815 0 002.278-9.51 19.815 19.815 0 00-2.278-9.504 16.418 16.418 0 00-6.852-6.687c-3.015-1.642-6.852-2.465-11.405-2.465H70.03v57.102zm20.282-27.8H79.638l.01-21.191h10.624c2.808 0 5.108.456 6.837 1.35a8.335 8.335 0 013.745 3.697 12.261 12.261 0 011.19 5.501c.031 1.9-.376 3.783-1.19 5.5a8.496 8.496 0 01-3.726 3.76c-1.714.919-4.008 1.384-6.816 1.384zM122.41 67.182a18.28 18.28 0 007.675 1.58c2.463 0 4.605-.366 6.368-1.078a13.758 13.758 0 004.368-2.742 13.331 13.331 0 002.047-2.466v5.35h9.17v-29.39c0-3.232-.57-5.913-1.692-7.968a12.664 12.664 0 00-4.384-4.783 17.278 17.278 0 00-5.662-2.28 28.051 28.051 0 00-5.632-.617 25.125 25.125 0 00-7.604 1.153 17.773 17.773 0 00-6.473 3.658 15.888 15.888 0 00-4.315 6.591l-.161.444 8.816 2.022.133-.333c.591-1.47 1.723-2.832 3.279-4.006 1.557-1.174 3.755-1.772 6.489-1.772 2.607 0 4.599.647 5.9 1.913 1.3 1.267 1.963 3.098 1.963 5.443v.194c0 .866-.308 1.47-.925 1.849-.687.41-1.828.724-3.369.924-1.615.207-3.754.456-6.365.74a57.545 57.545 0 00-6.137 1.103 20.141 20.141 0 00-5.505 2.157 11.134 11.134 0 00-4.008 3.914c-.983 1.633-1.485 3.747-1.485 6.286 0 2.91.681 5.415 2.022 7.455a12.906 12.906 0 005.487 4.659zm19.08-19.913a8.556 8.556 0 001.217-.46l.007 4.913a8.967 8.967 0 01-1.27 4.591 9.47 9.47 0 01-3.669 3.498c-1.599.884-3.544 1.334-5.856 1.334s-4.254-.548-5.703-1.54c-1.448-.993-2.157-2.438-2.157-4.42 0-1.399.379-2.533 1.125-3.374a7.335 7.335 0 013.082-1.99 22.823 22.823 0 014.399-1.055 99.522 99.522 0 002.629-.332c1.054-.145 2.127-.309 3.212-.49a24.269 24.269 0 002.984-.675zM159.577 67.826h9.269V40.84a8.96 8.96 0 014.84-8.203 10.79 10.79 0 015.172-1.232c.865 0 1.73.051 2.589.154l.099-.83-.046-.005.066-7.4.029-.554a34.863 34.863 0 00-1.877-.062c-2.524-.03-4.998.711-7.09 2.123a11.152 11.152 0 00-4.053 4.888v-6.385h-8.998v44.492zM195.969 65.114c2.333 2.188 5.477 3.297 9.346 3.297a20.303 20.303 0 003.116-.246c.975-.144 1.936-.37 2.873-.675l.287-.095v-7.942l-.5.099c-.394.08-1.849.219-2.629.293l-.475.046c-2.447.253-4.17-.136-5.095-1.171-.758-.841-1.144-2.225-1.144-4.114V31.004h8.983v-7.67h-8.983V12.949h-9.312v10.385h-6.365v7.67h6.365v25.312c0 3.646 1.199 6.61 3.533 8.798zM219.068 67.826h9.272V23.334h-9.272v44.492zM219.167 17.901h9.075V8.829h-9.075V17.9zM243.401 65.265c2.879 1.6 6.498 2.41 10.764 2.41a22.593 22.593 0 007.721-1.233 15.311 15.311 0 005.629-3.494 14.35 14.35 0 003.39-5.396 20.658 20.658 0 001.104-6.937V50.2h-8.912v.416a12.46 12.46 0 01-.964 5.147 6.91 6.91 0 01-2.793 3.17c-1.233.73-2.885 1.104-4.932 1.104-2.361 0-4.321-.509-5.81-1.492-1.489-.983-2.602-2.49-3.357-4.591-.755-2.102-1.134-4.786-1.134-7.976v-1.365c0-3.343.407-6.114 1.171-8.129.764-2.015 1.896-3.534 3.363-4.52 1.467-.987 3.289-1.489 5.447-1.489 2.052 0 3.735.348 4.999 1.03a6.244 6.244 0 012.774 3.04c.617 1.381.925 3.193.925 5.35v.416h9.229v-.416a22.273 22.273 0 00-1.1-7.254 13.389 13.389 0 00-3.428-5.405 15.082 15.082 0 00-5.595-3.291 24.098 24.098 0 00-7.65-1.1c-4.214 0-7.805.829-10.724 2.465-2.919 1.636-5.163 4.17-6.618 7.433s-2.195 7.476-2.195 12.524c0 5.047.715 9.241 2.158 12.563 1.442 3.322 3.659 5.837 6.538 7.436zM277.946 67.826h9.272V8.807h-9.272v59.019z"/><path d="M50 0v50H25V25H0V0h50zM25 50H0v24.997h25V50z"/></g><defs><clipPath id="clip0_6000_78881"><path fill="#fff" d="M0 0h287v75H0z"/></clipPath></defs></svg>